<?xml version="1.0" encoding="UTF-8"?>
<svg id="Camada_2" data-name="Camada 2" xmlns="http://www.w3.org/2000/svg" xmlns:xlink="http://www.w3.org/1999/xlink" viewBox="0 0 3041.2 808.46">
  <defs>
    <style>
      .cls-1 {
        fill: #0a4723;
      }

      .cls-2 {
        fill: url(#Gradiente_sem_nome_38);
      }

      .cls-3 {
        fill: #0a4623;
      }

      .cls-4 {
        fill: url(#Gradiente_sem_nome_38-3);
      }

      .cls-5 {
        fill: url(#Gradiente_sem_nome_38-2);
      }

      .cls-6 {
        fill: url(#Gradiente_sem_nome_38-6);
      }

      .cls-7 {
        fill: url(#Gradiente_sem_nome_38-5);
      }

      .cls-8 {
        fill: url(#Gradiente_sem_nome_38-4);
      }
    </style>
    <linearGradient id="Gradiente_sem_nome_38" data-name="Gradiente sem nome 38" x1="623.58" y1="484.57" x2="623.58" y2="0" gradientUnits="userSpaceOnUse">
      <stop offset="0" stop-color="#0a4723"/>
      <stop offset="1" stop-color="#009640"/>
    </linearGradient>
    <linearGradient id="Gradiente_sem_nome_38-2" data-name="Gradiente sem nome 38" x1="366.39" y1="807.83" x2="366.39" y2="590.86" xlink:href="#Gradiente_sem_nome_38"/>
    <linearGradient id="Gradiente_sem_nome_38-3" data-name="Gradiente sem nome 38" x1="366.62" y1="658.19" x2="366.62" y2="282.75" xlink:href="#Gradiente_sem_nome_38"/>
    <linearGradient id="Gradiente_sem_nome_38-4" data-name="Gradiente sem nome 38" x1="624.25" y1="808.46" x2="624.25" y2="326.1" xlink:href="#Gradiente_sem_nome_38"/>
    <linearGradient id="Gradiente_sem_nome_38-5" data-name="Gradiente sem nome 38" x1="105.01" y1="807.76" x2="105.01" y2="732.58" xlink:href="#Gradiente_sem_nome_38"/>
    <linearGradient id="Gradiente_sem_nome_38-6" data-name="Gradiente sem nome 38" x1="104.29" y1="735.88" x2="104.29" y2="497.25" xlink:href="#Gradiente_sem_nome_38"/>
  </defs>
  <g id="Camada_1-2" data-name="Camada 1">
    <path class="cls-3" d="M3041.2,793.08l-118.14.26-1.14-231.82c-.19-38.15-28.72-62.24-65.45-61.26-34.32.92-67.79,23.28-68.05,61.26l-1.6,231.42-117.75.58-.09-568.76,117.52-.22,1.18,220.82c44.69-60.43,146.1-71.13,203.21-21.81,28.64,24.74,48.7,61.79,48.91,101.35l1.41,268.17Z"/>
    <path class="cls-3" d="M2440.86,696.35c39.69,2.35,71.61-13.54,94.24-44.09l86.5,72.1c-21.61,29.3-50.73,50.14-83.13,63.06-87.55,33.27-195.02,18.24-255.74-53.91-63.34-75.26-65.83-185.38-6-263.37,80.88-105.43,261.67-104.32,344.46,3.42l-87.52,69.42c-33.64-43.99-92.56-54.72-140.28-28.58-34.62,25.07-49.1,66.81-38.93,108.15,8.27,42.24,41.73,71.16,86.4,73.81Z"/>
    <path class="cls-1" d="M1893.16,793.17l-117.55.36.37-391.04,117.12-.33,1.74,59.72c25.55-48.53,73.29-72,125.05-65.55l-.54,114.19c-26.49-4.09-51.22-2.87-74.65,7.34-30.65,14.43-50.32,42.61-50.5,77.22l-1.04,198.09Z"/>
    <polygon class="cls-1" points="2186.08 793.02 2067.27 793.55 2067.29 402.4 2186.11 402.21 2186.08 793.02"/>
    <path class="cls-3" d="M2192.3,244.08c22.17,27.7,21.49,61.94,2.85,86.96-19.86,26.66-55.58,34.6-85.57,19.79-28.41-14.03-44.61-47.45-34.96-79.6,7.47-24.9,26.7-42.37,47.57-47.78,26.05-6.75,53.65.05,70.12,20.63Z"/>
    <g>
      <path class="cls-2" d="M724.66,231.66l-.18-221.53c0-5.4-3.83-9.23-7.5-9.92-4.15-.77-8.07.56-11.84,4.61l-160.99,173.32c-12.95,13.95-21.76,31.2-21.65,51.05l1.45,255.38c85.18-76.82,148.84-159.91,200.72-252.92Z"/>
      <path class="cls-5" d="M471.79,723.06c.15,2.12.27,4.23.33,6.36l.81-138.56c-50.27,35.26-98.01,68.35-150.98,93.49l-62.91,29.85.72,79.23c.08,9.05,7.37,14.41,16.3,14.4l183.7-.31c8.76-.01,14.2-9.03,13.99-16.87l-1.64-61.24-.33-6.36Z"/>
      <path class="cls-4" d="M471.93,436.15l.72-141.02c-.04-8.64-12.58-11.82-18.16-12.32-6.76-.61-13.81,4.12-20.41,9.09l-158.95,119.56c-5.66,4.26-6.98,9.47-9.32,14.24-2.35,4.78-5.95,9.66-5.98,16.85l-.21,54.71-.42,74.75.53,86.18c42.61-19.25,82.2-39.27,118.79-64.3l62.33-42.65,13.33-9.52c11.24-8.02,24.43-14.78,18.38-30.44l-.61-75.13Z"/>
      <path class="cls-8" d="M725.26,491.54l-1.26-165.44c-45.34,64.93-92.38,122.31-146.03,174.95l-55.63,48.62.28,145.47,1.61,84.09c.08,5.77.18,11.56.33,17.35.38,19.8,111.12,24.02,169.46-61.78,12.28-18.06,22.42-37.35,26.28-59.24,1.32-7.51,3.22-14.32,3.12-22.84,1.1-1.03,2.77-3.47,2.75-6.74l-.9-154.45Z"/>
      <path class="cls-7" d="M4.18,788.3c-4.18.9-2.04,12.34,1.54,14.36,2.48,1.4,5.54,5.11,11.21,5.1l175.15-.22c10.68-.01,16.16-9.3,16.04-16.74l-.9-58.22c-67.07,25.29-133.48,40.68-203.05,55.72Z"/>
      <path class="cls-6" d="M175.58,499.51l-100.91,50.25-38.88,20.05c-20.24,10.44-34.93,29.56-35.09,53.41L0,724.93c-.03,4.78,1.05,8.2,3.59,10.96,69.7-10.25,137.74-29.99,204.29-56.24l-.23-79.71v-47.36c-.02-12.8,2.73-26.61-1.19-40.92-3.37-12.32-19.39-17.87-30.89-12.14Z"/>
    </g>
    <g>
      <path class="cls-1" d="M1126.79,398.43c-75.01-4.82-142.52,29.55-179.33,97.61l-.77-266.01c-13.33-1.85-23.92-2.44-35.73.59l-.19,561.43c12.25,2.85,22.85,1.84,35.8,1.23l1.09-86.42c36.09,61.45,96.95,95.62,165.61,95.06,54.87-.45,103.93-20.2,141.49-62.73,56.7-64.2,66.97-153.79,32.09-230.56-29.97-63.88-89.7-105.66-160.05-110.19ZM1227.08,717.71c-29.12,32.98-63.81,48.4-105.46,51.4-71.05,5.12-137.04-35.83-162.76-103.24-24.05-63.03-11.21-134.11,33.27-183.21,63.27-69.84,178.01-68.37,237.44,1.7,56.3,66.38,56.02,167.1-2.49,233.35Z"/>
      <path class="cls-1" d="M1558.21,397.55c-64.64-2.51-126.49,24.83-164.64,78.29-41.33,57.92-49.75,132.05-26.36,198.61,25.63,72.93,90.06,120.63,165.97,127.53,69.54,6.32,135.19-20.85,177.31-76.05l-28-21.39c-58.66,84.01-191.85,86.05-252.9,9.87-23.37-29.16-37.39-63.09-38.76-101.36l336.59.16c8.86-111.58-55.22-207.44-169.22-215.67ZM1390.87,580.89c5.11-48.62,26.82-96.14,69.03-124.12,47.67-31.61,108.99-33.48,159.56-8.32,44.82,28.39,71.06,74.74,72.67,131.96l-301.26.49Z"/>
    </g>
  </g>
</svg>