<svg width="18" height="18" viewBox="0 0 18 18" fill="none" xmlns="http://www.w3.org/2000/svg">
<path d="M1.5 9.45746H14.25" stroke="#A3BFA5" stroke-width="1.125" stroke-miterlimit="10" stroke-linecap="round" stroke-linejoin="round"/>
<path d="M14.25 7.70985V13.0724C14.2275 15.2099 13.6425 15.7499 11.415 15.7499H4.33502C2.07002 15.7499 1.5 15.1874 1.5 12.9524V7.70985C1.5 5.68485 1.9725 5.03236 3.75 4.92736C3.93 4.91986 4.12502 4.91235 4.33502 4.91235H11.415C13.68 4.91235 14.25 5.47485 14.25 7.70985Z" stroke="#A3BFA5" stroke-width="1.125" stroke-linecap="round" stroke-linejoin="round"/>
<path d="M16.5 5.0475V10.29C16.5 12.315 16.0275 12.9675 14.25 13.0725V7.71C14.25 5.475 13.68 4.9125 11.415 4.9125H4.33502C4.12502 4.9125 3.93 4.92 3.75 4.9275C3.7725 2.79 4.35752 2.25 6.58502 2.25H13.665C15.93 2.25 16.5 2.8125 16.5 5.0475Z" stroke="#A3BFA5" stroke-width="1.125" stroke-linecap="round" stroke-linejoin="round"/>
<path d="M3.9375 13.3576H5.22748" stroke="#A3BFA5" stroke-width="1.125" stroke-miterlimit="10" stroke-linecap="round" stroke-linejoin="round"/>
<path d="M6.83203 13.3576H9.41205" stroke="#A3BFA5" stroke-width="1.125" stroke-miterlimit="10" stroke-linecap="round" stroke-linejoin="round"/>
</svg>
